<!-- OG Image — rsvg-convert -w 1200 -h 630 og-image.svg -o og-image.png -->
<svg xmlns="http://www.w3.org/2000/svg" width="1200" height="630" viewBox="0 0 1200 630">
  <defs>
    <filter id="g"><feGaussianBlur stdDeviation="8" result="b"/><feMerge><feMergeNode in="b"/><feMergeNode in="SourceGraphic"/></feMerge></filter>
    <filter id="tg"><feGaussianBlur stdDeviation="4" result="b"/><feMerge><feMergeNode in="b"/><feMergeNode in="SourceGraphic"/></feMerge></filter>
    <filter id="sg"><feGaussianBlur stdDeviation="20"/></filter>
  </defs>
  <rect width="1200" height="630" fill="#050505"/>
  <rect width="1200" height="630" fill="none" stroke="#1a1a1f" stroke-width="2"/>
  <!-- ambient -->
  <ellipse cx="380" cy="240" rx="200" ry="180" fill="#fbbf24" opacity="0.02" filter="url(#sg)"/>
  <ellipse cx="760" cy="340" rx="180" ry="150" fill="#f43f5e" opacity="0.02" filter="url(#sg)"/>
  <!-- wheat -->
  <ellipse cx="320" cy="200" rx="85" ry="105" fill="#1a1505" transform="rotate(-8 320 200)"/>
  <ellipse cx="320" cy="200" rx="85" ry="105" fill="none" stroke="#fbbf24" stroke-width="3" transform="rotate(-8 320 200)" filter="url(#g)"/>
  <!-- barn -->
  <ellipse cx="680" cy="260" rx="60" ry="75" fill="#1a0508" transform="rotate(12 680 260)"/>
  <ellipse cx="680" cy="260" rx="60" ry="75" fill="none" stroke="#f43f5e" stroke-width="3" transform="rotate(12 680 260)" filter="url(#g)"/>
  <!-- mill -->
  <ellipse cx="520" cy="150" rx="45" ry="58" fill="#050a1a" transform="rotate(-5 520 150)"/>
  <ellipse cx="520" cy="150" rx="45" ry="58" fill="none" stroke="#3b82f6" stroke-width="2.5" transform="rotate(-5 520 150)" filter="url(#g)"/>
  <!-- farmer -->
  <ellipse cx="460" cy="360" rx="38" ry="48" fill="#051a0a" transform="rotate(15 460 360)"/>
  <ellipse cx="460" cy="360" rx="38" ry="48" fill="none" stroke="#22c55e" stroke-width="2" transform="rotate(15 460 360)" filter="url(#g)"/>
  <!-- silo -->
  <ellipse cx="830" cy="170" rx="32" ry="40" fill="#0f0a1a" transform="rotate(-10 830 170)"/>
  <ellipse cx="830" cy="170" rx="32" ry="40" fill="none" stroke="#a78bfa" stroke-width="2" transform="rotate(-10 830 170)" filter="url(#g)"/>
  <!-- harvest -->
  <circle cx="260" cy="370" r="28" fill="#1a0f05"/>
  <circle cx="260" cy="370" r="28" fill="none" stroke="#fb923c" stroke-width="2" filter="url(#g)"/>
  <!-- orchard -->
  <circle cx="780" cy="380" r="22" fill="#051515"/>
  <circle cx="780" cy="380" r="22" fill="none" stroke="#22d3ee" stroke-width="1.5" filter="url(#g)"/>
  <!-- title -->
  <text x="600" y="490" text-anchor="middle" font-family="Inter,'Helvetica Neue',Arial,sans-serif" font-size="58" font-weight="700" letter-spacing="3" fill="#8df6ff" opacity="0.7" filter="url(#tg)">grainulator</text>
  <text x="600" y="530" text-anchor="middle" font-family="'SF Mono','Fira Code',monospace" font-size="18" fill="#8df6ff" opacity="0.35">/plugin install grainulator</text>
</svg>
